<svg id="Layer_1" data-name="Layer 1" xmlns="http://www.w3.org/2000/svg" viewBox="0 0 1366 768"><defs><style>.cls-1,.cls-2{fill:#fff;}.cls-2{font-size:17.62px;font-family:Gotham-Light, Gotham;font-weight:300;letter-spacing:0.72em;}.cls-3{letter-spacing:0.81em;}.cls-4{letter-spacing:0.81em;}.cls-5{letter-spacing:0.81em;}</style></defs><path class="cls-1" d="M388.79,363.55a82.66,82.66,0,0,1,3.12-23.31,49.8,49.8,0,0,1,9.7-18.46,44.07,44.07,0,0,1,16.81-12.13q10.23-4.33,24.26-4.33a93.78,93.78,0,0,1,17,1.56q8.49,1.56,16.81,3.46v13.17q0,1.74-1.38,1.74a3.08,3.08,0,0,1-2.08-1,3.83,3.83,0,0,1-1.22-2.51A11.49,11.49,0,0,0,470,317.1a9.19,9.19,0,0,0-3.56-3.29,56.52,56.52,0,0,0-11.09-4.33,42.67,42.67,0,0,0-11.26-1.56q-11.61,0-19.76,5.11a41.77,41.77,0,0,0-13.25,13.17,58.07,58.07,0,0,0-7.46,18.11,87.63,87.63,0,0,0-2.34,19.93,72.73,72.73,0,0,0,2.86,20.27,54.91,54.91,0,0,0,8.58,17.59A44.45,44.45,0,0,0,427,414.58a40.51,40.51,0,0,0,20,4.77,58.79,58.79,0,0,0,30.33-8.15v2.95q-14.91,8.49-33.79,8.49a60.62,60.62,0,0,1-23.4-4.25,47.7,47.7,0,0,1-17.24-11.95,50.44,50.44,0,0,1-10.57-18.63A78.1,78.1,0,0,1,388.79,363.55Z"/><path class="cls-1" d="M478.88,394.58a36,36,0,0,1,1.53-10.8,23.49,23.49,0,0,1,4.61-8.44,20.26,20.26,0,0,1,7.56-5.48A26.31,26.31,0,0,1,503,367.94a26.77,26.77,0,0,1,10.69,2,20.9,20.9,0,0,1,7.62,5.54,23.08,23.08,0,0,1,4.55,8.44,36.54,36.54,0,0,1,1.48,10.69,35.24,35.24,0,0,1-1.59,10.85,23.6,23.6,0,0,1-4.66,8.44,21.11,21.11,0,0,1-7.62,5.48,26,26,0,0,1-10.47,2,25.61,25.61,0,0,1-10.41-2,20.83,20.83,0,0,1-7.56-5.53,23.51,23.51,0,0,1-4.61-8.5A36.11,36.11,0,0,1,478.88,394.58ZM489,403.89a35.19,35.19,0,0,0,3.78,4.88,34.65,34.65,0,0,0,4.88,4.44,26.83,26.83,0,0,0,5.59,3.24,15.28,15.28,0,0,0,6,1.26,14.55,14.55,0,0,0,3.73-.5,13,13,0,0,0,3.73-1.7,12.46,12.46,0,0,0,5.31-6.35,19,19,0,0,0,1-8.12,30.3,30.3,0,0,0-2-8.44,40.9,40.9,0,0,0-3.73-7.34,39.08,39.08,0,0,0-3.89-5,35.32,35.32,0,0,0-4.88-4.44,24.92,24.92,0,0,0-5.64-3.18,16.35,16.35,0,0,0-6.09-1.2,14.4,14.4,0,0,0-3.72.49,13,13,0,0,0-3.73,1.7,12.73,12.73,0,0,0-5.26,6.47,19.07,19.07,0,0,0-.93,8.05,29,29,0,0,0,2.08,8.39A42.26,42.26,0,0,0,489,403.89Z"/><path class="cls-1" d="M539.5,369.15a4.52,4.52,0,0,1,4.82,4.82v39.46a4.52,4.52,0,0,0,4.82,4.82h2.52V420H530.29v-1.76h2.52a4.51,4.51,0,0,0,4.82-4.82V375.72a4.51,4.51,0,0,0-4.82-4.82h-2.52v-1.75Zm23.78-1.21a13.77,13.77,0,0,1,6,1.21,10.79,10.79,0,0,1,4.11,3.34,14.64,14.64,0,0,1,2.36,4.93,23,23,0,0,1,.77,6.08v29.93a4.51,4.51,0,0,0,4.82,4.82H584V420H562.52v-1.76h2.63a4.51,4.51,0,0,0,4.82-4.82V385a33.5,33.5,0,0,0-.38-5.15,11.67,11.67,0,0,0-1.43-4.17,7.1,7.1,0,0,0-3-2.74,11.56,11.56,0,0,0-5.15-1,16.93,16.93,0,0,0-8.17,2,32,32,0,0,0-6.74,4.82,26.3,26.3,0,0,1,7.67-7.89A18.71,18.71,0,0,1,563.28,367.94Zm31.68,0a13.77,13.77,0,0,1,6,1.21,10.79,10.79,0,0,1,4.11,3.34,14.64,14.64,0,0,1,2.36,4.93,23,23,0,0,1,.77,6.08v29.93a4.51,4.51,0,0,0,4.82,4.82h2.63V420H594.2v-1.76h2.63a4.51,4.51,0,0,0,4.82-4.82V385a33.5,33.5,0,0,0-.38-5.15,11.67,11.67,0,0,0-1.43-4.17,7.1,7.1,0,0,0-3-2.74,11.56,11.56,0,0,0-5.15-1,17,17,0,0,0-8.12,2,31.55,31.55,0,0,0-6.79,4.82,26.3,26.3,0,0,1,7.67-7.89A18.74,18.74,0,0,1,595,367.94Z"/><path class="cls-1" d="M618.42,418.25h2.52a4.53,4.53,0,0,0,4.83-4.82V375.72a4.53,4.53,0,0,0-4.83-4.82h-2.52v-1.75h9.21a4.51,4.51,0,0,1,4.82,4.82v39.46a4.53,4.53,0,0,0,4.83,4.82h2.52V420H618.42Zm4.72-58.86,4.71-4.72,4.71,4.72-4.71,4.71Z"/><path class="cls-1" d="M642.65,369.15h9.21a4.52,4.52,0,0,1,4.82,4.82v39.46a4.51,4.51,0,0,0,4.82,4.82H664V420H642.65v-1.76h2.52a4.51,4.51,0,0,0,4.82-4.82V375.72a4.51,4.51,0,0,0-4.82-4.82h-2.52Zm15.23,9.64a26.33,26.33,0,0,1,7.68-7.89,18.9,18.9,0,0,1,10.63-3,13.77,13.77,0,0,1,6,1.21,10.79,10.79,0,0,1,4.11,3.34,14.64,14.64,0,0,1,2.36,4.93,23,23,0,0,1,.77,6.08v29.93a4.51,4.51,0,0,0,4.82,4.82h2.52V420H675.42v-1.76H678a4.52,4.52,0,0,0,4.82-4.82V385a33.5,33.5,0,0,0-.38-5.15,11.15,11.15,0,0,0-1.48-4.17,7.57,7.57,0,0,0-3.07-2.74,11.58,11.58,0,0,0-5.16-1,16.77,16.77,0,0,0-8,2A31.86,31.86,0,0,0,657.88,378.79Z"/><path class="cls-1" d="M706.82,417.56l4.5-9.95a19,19,0,0,1-6.82-7.36,24.85,24.85,0,0,1-.68-20,18.81,18.81,0,0,1,4.91-6.75,21.54,21.54,0,0,1,7.36-4.16,28.79,28.79,0,0,1,9.27-1.43,34.54,34.54,0,0,1,6.4.61,24.8,24.8,0,0,1,6.14,2l20.86-1.64-2,7.5-11.31-3.27c-1.82-.45-2.84-.48-3.07-.07s.25,1.39,1.43,2.93a26.38,26.38,0,0,1,3.34,5.93,19.83,19.83,0,0,1,1.3,7.43,23.12,23.12,0,0,1-1.78,9.27,20.11,20.11,0,0,1-12.2,11.32,28.55,28.55,0,0,1-9.47,1.5,24.28,24.28,0,0,1-11.73-2.73l-5.45,12.4a26.4,26.4,0,0,0-1.09,3.75,28.91,28.91,0,0,0-.68,4.71,9.64,9.64,0,0,0,.48,3.95,2.26,2.26,0,0,0,2.25,1.64,6.75,6.75,0,0,0,3.34-1.23,26.17,26.17,0,0,0,4.7-4.09l7.63-7.5c1.37-1.27,2.77-2.63,4.23-4.09a46.78,46.78,0,0,1,4.57-4,25.61,25.61,0,0,1,4.9-3,12.2,12.2,0,0,1,5.12-1.16,10.27,10.27,0,0,1,4.09.89,15.16,15.16,0,0,1,4.22,2.93,14.89,14.89,0,0,1,4.64,8.86,21.6,21.6,0,0,1-1.09,9.54,36.57,36.57,0,0,1-4.71,9.14,57.81,57.81,0,0,1-6.34,7.63q-1.5,1.5-4.22,3.82a67,67,0,0,1-6,4.5,49.86,49.86,0,0,1-6.68,3.75,15.69,15.69,0,0,1-6.54,1.56,7.55,7.55,0,0,1-5.59-2,8.49,8.49,0,0,1-2.12-4.09,15.58,15.58,0,0,1-.2-4.84,25.34,25.34,0,0,1,1-4.91c.5-1.59,1-3,1.43-4.29a17.38,17.38,0,0,0,.75,5,14,14,0,0,0,2.25,4.5,12.69,12.69,0,0,0,3.68,3.27,9.39,9.39,0,0,0,4.91,1.3,14.85,14.85,0,0,0,8.32-2.73,42.79,42.79,0,0,0,7.09-5.86,41.4,41.4,0,0,0,4.77-5.86,27.46,27.46,0,0,0,3.47-7,16,16,0,0,0,.62-7.3,11.64,11.64,0,0,0-3.68-6.68,8.78,8.78,0,0,0-6.28-2.86,11.84,11.84,0,0,0-6.4,2.11,31.89,31.89,0,0,0-6.14,5.25l-8.59,9q-6.95,7.09-12,7.09a6.39,6.39,0,0,1-4.64-2.05,6.3,6.3,0,0,1-1.7-4.83,26.19,26.19,0,0,1,.95-6.34,41.43,41.43,0,0,1,2.25-6.28C705.68,420.2,706.36,418.65,706.82,417.56Zm9.4-15.81a34.74,34.74,0,0,0,6.61,4.77,14.75,14.75,0,0,0,7.16,1.91,12.28,12.28,0,0,0,4.84-1.09,16,16,0,0,0,4.84-3.41,13.12,13.12,0,0,0,4-6.48,13.56,13.56,0,0,0-.13-6.61,21.19,21.19,0,0,0-3-6.34,36.13,36.13,0,0,0-4.84-5.65,33.3,33.3,0,0,0-7.3-5.8,15.48,15.48,0,0,0-7.83-2.25q-5.19,0-9.82,4.5a13.63,13.63,0,0,0-4.09,7,13.48,13.48,0,0,0,.55,7.09A22.06,22.06,0,0,0,711,396,58.09,58.09,0,0,0,716.22,401.75Z"/><path class="cls-1" d="M785,408.28a2,2,0,0,1,2.2,2.08,9.59,9.59,0,0,0,1.37,4.11,6.92,6.92,0,0,0,3,2.8,32.63,32.63,0,0,0,5.59,2.57,17.34,17.34,0,0,0,5.81,1.05,17.87,17.87,0,0,0,6.25-1.1,15.21,15.21,0,0,0,5.1-3.07,14.6,14.6,0,0,0,3.4-4.77,14.89,14.89,0,0,0,1.26-6.19,15.44,15.44,0,0,0-1-5.76,16.49,16.49,0,0,0-2.63-4.44,19.7,19.7,0,0,0-3.95-3.56,53.36,53.36,0,0,0-4.93-3l-5.26-3.07q-2.74-1.65-5.59-3.51a31.49,31.49,0,0,1-5.15-4.17,20.42,20.42,0,0,1-3.79-5.2,14.52,14.52,0,0,1-1.48-6.64,17.3,17.3,0,0,1,1.59-7.51,16.92,16.92,0,0,1,4.28-5.64,19.5,19.5,0,0,1,6.25-3.56,22.3,22.3,0,0,1,7.51-1.26,67.4,67.4,0,0,1,9,.6,53.94,53.94,0,0,1,8.71,1.92v10.19h-.54c-1.25,0-1.94-.69-2.09-2.08a7.41,7.41,0,0,0-1.7-4.28A10.94,10.94,0,0,0,814.7,352a17.33,17.33,0,0,0-4.55-1.48,26.08,26.08,0,0,0-4.61-.44,12,12,0,0,0-5.26,1.15,12.35,12.35,0,0,0-4.11,3.13,15.5,15.5,0,0,0-2.69,4.49,14.48,14.48,0,0,0-1,5.26q0,8.67,10.85,14.8l5.15,3c2.2,1.24,4.35,2.5,6.47,3.78a32.87,32.87,0,0,1,5.7,4.33,19.76,19.76,0,0,1,4.06,5.54,16.37,16.37,0,0,1,1.53,7.29,18.26,18.26,0,0,1-1.86,8.38,18.78,18.78,0,0,1-5,6.2,23,23,0,0,1-7.18,3.89,26.28,26.28,0,0,1-8.44,1.37A72,72,0,0,1,794,422a46.6,46.6,0,0,1-9.42-2.3v-11.4Z"/><path class="cls-1" d="M832.4,394.58a36,36,0,0,1,1.53-10.8,23.64,23.64,0,0,1,4.61-8.44,20.34,20.34,0,0,1,7.56-5.48,26.36,26.36,0,0,1,10.42-1.92,26.75,26.75,0,0,1,10.68,2,20.74,20.74,0,0,1,7.62,5.54,22.79,22.79,0,0,1,4.55,8.44,36.54,36.54,0,0,1,1.48,10.69,35.24,35.24,0,0,1-1.59,10.85,23.6,23.6,0,0,1-4.66,8.44,21,21,0,0,1-7.61,5.48,26.07,26.07,0,0,1-10.47,2,25.66,25.66,0,0,1-10.42-2,20.91,20.91,0,0,1-7.56-5.53,23.66,23.66,0,0,1-4.61-8.5A36.11,36.11,0,0,1,832.4,394.58Zm10.09,9.31a35.19,35.19,0,0,0,3.78,4.88,34,34,0,0,0,4.87,4.44,26.64,26.64,0,0,0,5.6,3.24,15.23,15.23,0,0,0,6,1.26,14.44,14.44,0,0,0,3.73-.5,12.89,12.89,0,0,0,3.73-1.7,12.53,12.53,0,0,0,5.32-6.35,18.86,18.86,0,0,0,1-8.12,30,30,0,0,0-2-8.44,37.76,37.76,0,0,0-7.61-12.33,35.91,35.91,0,0,0-4.88-4.44,25.2,25.2,0,0,0-5.65-3.18,16.34,16.34,0,0,0-6.08-1.2,14.42,14.42,0,0,0-3.73.49,13.29,13.29,0,0,0-3.73,1.7,12.73,12.73,0,0,0-5.26,6.47,19.07,19.07,0,0,0-.93,8.05,29.32,29.32,0,0,0,2.08,8.39A42.27,42.27,0,0,0,842.49,403.89Z"/><path class="cls-1" d="M887.65,394.58a36,36,0,0,1,1.53-10.8,23.64,23.64,0,0,1,4.61-8.44,20.26,20.26,0,0,1,7.56-5.48,26.36,26.36,0,0,1,10.42-1.92,26.75,26.75,0,0,1,10.68,2,20.9,20.9,0,0,1,7.62,5.54,22.93,22.93,0,0,1,4.55,8.44,36.54,36.54,0,0,1,1.48,10.69,35.24,35.24,0,0,1-1.59,10.85,23.6,23.6,0,0,1-4.66,8.44,20.94,20.94,0,0,1-7.62,5.48,26,26,0,0,1-10.46,2,25.66,25.66,0,0,1-10.42-2,20.83,20.83,0,0,1-7.56-5.53,23.66,23.66,0,0,1-4.61-8.5A36.11,36.11,0,0,1,887.65,394.58Zm10.08,9.31a36.09,36.09,0,0,0,3.79,4.88,34,34,0,0,0,4.87,4.44,26.83,26.83,0,0,0,5.59,3.24,15.31,15.31,0,0,0,6,1.26,14.49,14.49,0,0,0,3.73-.5,13,13,0,0,0,3.73-1.7,12.46,12.46,0,0,0,5.31-6.35,18.71,18.71,0,0,0,1-8.12,30.3,30.3,0,0,0-2-8.44,40.89,40.89,0,0,0-3.72-7.34,40.11,40.11,0,0,0-3.9-5,35.83,35.83,0,0,0-4.87-4.44,25.2,25.2,0,0,0-5.65-3.18,16.34,16.34,0,0,0-6.08-1.2,14.42,14.42,0,0,0-3.73.49,13.16,13.16,0,0,0-3.73,1.7,12.73,12.73,0,0,0-5.26,6.47,19.07,19.07,0,0,0-.93,8.05,29,29,0,0,0,2.08,8.39A42.26,42.26,0,0,0,897.73,403.89Z"/><path class="cls-1" d="M939.06,369.15h9.21a4.51,4.51,0,0,1,4.82,4.82v39.46a4.53,4.53,0,0,0,4.83,4.82h2.52V420H939.06v-1.76h2.52a4.53,4.53,0,0,0,4.83-4.82V375.72a4.53,4.53,0,0,0-4.83-4.82h-2.52Zm15.24,9.64A26.3,26.3,0,0,1,962,370.9a18.92,18.92,0,0,1,10.63-3,13.77,13.77,0,0,1,6,1.21,10.79,10.79,0,0,1,4.11,3.34,14.64,14.64,0,0,1,2.36,4.93,23,23,0,0,1,.77,6.08v29.93a4.51,4.51,0,0,0,4.82,4.82h2.52V420H971.84v-1.76h2.52a4.51,4.51,0,0,0,4.82-4.82V385a33.5,33.5,0,0,0-.38-5.15,11.15,11.15,0,0,0-1.48-4.17,7.5,7.5,0,0,0-3.07-2.74,11.53,11.53,0,0,0-5.15-1,16.84,16.84,0,0,0-8,2A31.55,31.55,0,0,0,954.3,378.79Z"/><text class="cls-2" transform="translate(512.1 329.4)">W<tspan class="cls-3" x="32.11" y="0">ALK THE PLAN</tspan><tspan class="cls-4" x="338.21" y="0">E</tspan><tspan class="cls-5" x="364.21" y="0">T</tspan></text></svg>