<svg id="Layer_1" data-name="Layer 1" xmlns="http://www.w3.org/2000/svg" viewBox="0 0 1366 768"><defs><style>.cls-1{fill:#fff;}</style></defs><path class="cls-1" d="M259.92,381.1a76.2,76.2,0,0,1,2.89-21.55,46,46,0,0,1,9-17.07,40.71,40.71,0,0,1,15.55-11.22q9.45-4,22.44-4a86.85,86.85,0,0,1,15.7,1.44q7.86,1.44,15.55,3.21v12.18c0,1.07-.43,1.6-1.28,1.6a2.85,2.85,0,0,1-1.92-.88,3.55,3.55,0,0,1-1.13-2.32,10.51,10.51,0,0,0-1.68-4.33,8.48,8.48,0,0,0-3.28-3,53.18,53.18,0,0,0-10.26-4,39.18,39.18,0,0,0-10.42-1.45q-10.74,0-18.27,4.73a38.75,38.75,0,0,0-12.26,12.18,53.58,53.58,0,0,0-6.89,16.75,80.69,80.69,0,0,0-2.17,18.43,66.86,66.86,0,0,0,2.65,18.76A50.47,50.47,0,0,0,282,416.76a41,41,0,0,0,13.22,11.54,37.49,37.49,0,0,0,18.51,4.41,54.41,54.41,0,0,0,28.05-7.53v2.72a62,62,0,0,1-31.25,7.86,56,56,0,0,1-21.64-3.93A44.12,44.12,0,0,1,273,420.77a46.72,46.72,0,0,1-9.77-17.23A72.25,72.25,0,0,1,259.92,381.1Z"/><path class="cls-1" d="M344.07,394.73a52.3,52.3,0,0,1,2.24-15.79A34.63,34.63,0,0,1,353,366.6a29.86,29.86,0,0,1,11.06-8,43.31,43.31,0,0,1,30.85.08,30.52,30.52,0,0,1,11.14,8.1,33.58,33.58,0,0,1,6.65,12.34,53.35,53.35,0,0,1,2.17,15.63,51.76,51.76,0,0,1-2.32,15.86,34.54,34.54,0,0,1-6.82,12.34,30.68,30.68,0,0,1-11.14,8,38.17,38.17,0,0,1-15.3,2.88A37.65,37.65,0,0,1,364.1,431a30.51,30.51,0,0,1-11.06-8.1,34.48,34.48,0,0,1-6.73-12.42A52.49,52.49,0,0,1,344.07,394.73Zm14.74,13.62a52.76,52.76,0,0,0,5.53,7.13,50.79,50.79,0,0,0,7.13,6.49,39,39,0,0,0,8.18,4.73,22.24,22.24,0,0,0,8.81,1.84,21.26,21.26,0,0,0,5.45-.72,18.85,18.85,0,0,0,5.45-2.48,18.33,18.33,0,0,0,7.78-9.3,27.67,27.67,0,0,0,1.44-11.86,44.27,44.27,0,0,0-3-12.34,59.17,59.17,0,0,0-5.45-10.74,57.54,57.54,0,0,0-5.69-7.29,50.85,50.85,0,0,0-7.13-6.49,36.33,36.33,0,0,0-8.25-4.65,23.92,23.92,0,0,0-8.9-1.76,21.26,21.26,0,0,0-5.45.72,19.12,19.12,0,0,0-5.45,2.48,18.66,18.66,0,0,0-7.69,9.46,28,28,0,0,0-1.36,11.78,42.3,42.3,0,0,0,3,12.26A63.33,63.33,0,0,0,358.81,408.35Z"/><path class="cls-1" d="M432.7,357.54a6.62,6.62,0,0,1,7.05,7v57.7a6.64,6.64,0,0,0,7.05,7.06h3.69v2.56H419.24v-2.56h3.68a6.64,6.64,0,0,0,7.06-7.06V367.16a6.62,6.62,0,0,0-7.06-7.05h-3.68v-2.57Zm34.78-1.76a20.37,20.37,0,0,1,8.82,1.76,16,16,0,0,1,6,4.89,21.69,21.69,0,0,1,3.44,7.21,33.47,33.47,0,0,1,1.12,8.9v43.75a6.64,6.64,0,0,0,7.06,7.06h3.84v2.56H466.36v-2.56h3.84a6.64,6.64,0,0,0,7.06-7.06V380.78a48.43,48.43,0,0,0-.56-7.53,17.11,17.11,0,0,0-2.09-6.09,10.3,10.3,0,0,0-4.41-4,16.89,16.89,0,0,0-7.53-1.44,24.86,24.86,0,0,0-11.94,2.88,47.58,47.58,0,0,0-9.86,7.06,38.56,38.56,0,0,1,11.22-11.54A27.3,27.3,0,0,1,467.48,355.78Zm46.32,0a20.3,20.3,0,0,1,8.81,1.76,16,16,0,0,1,6,4.89,21.69,21.69,0,0,1,3.44,7.21,33.47,33.47,0,0,1,1.12,8.9v43.75a6.64,6.64,0,0,0,7.06,7.06h3.84v2.56H512.68v-2.56h3.84a6.64,6.64,0,0,0,7.06-7.06V380.78a48.43,48.43,0,0,0-.56-7.53,17.11,17.11,0,0,0-2.09-6.09,10.36,10.36,0,0,0-4.41-4,16.89,16.89,0,0,0-7.53-1.44,25,25,0,0,0-11.86,2.88,46.79,46.79,0,0,0-9.94,7.06,38.56,38.56,0,0,1,11.22-11.54A27.3,27.3,0,0,1,513.8,355.78Z"/><path class="cls-1" d="M548.1,429.35h3.68a6.62,6.62,0,0,0,7.05-7.06V367.16a6.61,6.61,0,0,0-7.05-7.05H548.1v-2.57h13.46a6.62,6.62,0,0,1,7.05,7v57.7a6.64,6.64,0,0,0,7,7.06h3.69v2.56H548.1ZM555,343.28l6.89-6.89,6.89,6.89-6.89,6.89Z"/><path class="cls-1" d="M583.52,357.54H597a6.62,6.62,0,0,1,7,7v57.7a6.62,6.62,0,0,0,7.05,7.06h3.69v2.56H583.52v-2.56h3.68a6.62,6.62,0,0,0,7-7.06V367.16a6.61,6.61,0,0,0-7-7.05h-3.68Zm22.27,14.11A38.56,38.56,0,0,1,617,360.11a27.58,27.58,0,0,1,15.55-4.33,20.37,20.37,0,0,1,8.82,1.76,16,16,0,0,1,6,4.89,21.69,21.69,0,0,1,3.44,7.21,33.47,33.47,0,0,1,1.12,8.9v43.75a6.64,6.64,0,0,0,7.06,7.06h3.68v2.56H631.44v-2.56h3.68a6.64,6.64,0,0,0,7.06-7.06V380.78a48.43,48.43,0,0,0-.56-7.53,16.24,16.24,0,0,0-2.17-6.09,10.88,10.88,0,0,0-4.49-4,16.89,16.89,0,0,0-7.53-1.44,24.65,24.65,0,0,0-11.7,2.88A46.79,46.79,0,0,0,605.79,371.65Z"/><path class="cls-1" d="M677.27,427.7l6.52-14.42a27.52,27.52,0,0,1-9.88-10.67,36.07,36.07,0,0,1-1-28.95,27.36,27.36,0,0,1,7.12-9.78,31.56,31.56,0,0,1,10.67-6,41.71,41.71,0,0,1,13.43-2.07,50.59,50.59,0,0,1,9.29.89,36.27,36.27,0,0,1,8.89,2.86l30.23-2.37-3,10.87-16.4-4.74q-4-1-4.45-.1t2.08,4.25a38.53,38.53,0,0,1,4.84,8.59,28.65,28.65,0,0,1,1.87,10.77A33.56,33.56,0,0,1,735,400.24a29.1,29.1,0,0,1-17.69,16.39,41.15,41.15,0,0,1-13.73,2.18,35.2,35.2,0,0,1-17-3.95l-7.91,18a39.77,39.77,0,0,0-1.58,5.43,41.1,41.1,0,0,0-1,6.82,13.88,13.88,0,0,0,.7,5.73,3.26,3.26,0,0,0,3.26,2.37,9.73,9.73,0,0,0,4.84-1.78,37.3,37.3,0,0,0,6.81-5.93l11.07-10.86c2-1.85,4-3.82,6.12-5.93a69.56,69.56,0,0,1,6.62-5.83,36.88,36.88,0,0,1,7.12-4.35,17.54,17.54,0,0,1,7.41-1.68,14.71,14.71,0,0,1,5.92,1.29,22.11,22.11,0,0,1,6.13,4.24q5.92,5.94,6.72,12.85A31.34,31.34,0,0,1,747.22,449a53.2,53.2,0,0,1-6.82,13.24,83.61,83.61,0,0,1-9.19,11.06q-2.18,2.18-6.12,5.53a93,93,0,0,1-8.7,6.52,71.2,71.2,0,0,1-9.68,5.44,22.71,22.71,0,0,1-9.48,2.27,11,11,0,0,1-8.1-3,12.28,12.28,0,0,1-3.07-5.93,22.44,22.44,0,0,1-.29-7,36.22,36.22,0,0,1,1.48-7.11c.72-2.3,1.41-4.38,2.07-6.22a25.39,25.39,0,0,0,1.09,7.21,20.07,20.07,0,0,0,3.26,6.52,18.41,18.41,0,0,0,5.34,4.74,13.64,13.64,0,0,0,7.11,1.88,21.55,21.55,0,0,0,12-3.95,61.29,61.29,0,0,0,10.28-8.5,58.62,58.62,0,0,0,6.91-8.49,39.72,39.72,0,0,0,5-10.18,23.18,23.18,0,0,0,.89-10.57,16.69,16.69,0,0,0-5.34-9.68,12.62,12.62,0,0,0-9.09-4.15,17.08,17.08,0,0,0-9.28,3.06,45.27,45.27,0,0,0-8.89,7.61l-12.45,13q-10.08,10.28-17.39,10.27a9.3,9.3,0,0,1-6.72-3,9.2,9.2,0,0,1-2.47-7,38.37,38.37,0,0,1,1.39-9.18,58.73,58.73,0,0,1,3.26-9.09Q676.28,430.07,677.27,427.7Zm13.63-22.92a49.8,49.8,0,0,0,9.59,6.92,21.32,21.32,0,0,0,10.37,2.76,17.58,17.58,0,0,0,7-1.58,22.81,22.81,0,0,0,7-4.94q4.74-4.54,5.83-9.38a19.69,19.69,0,0,0-.2-9.59,30.06,30.06,0,0,0-4.35-9.18,51.6,51.6,0,0,0-7-8.2,48,48,0,0,0-10.57-8.4,22.52,22.52,0,0,0-11.36-3.26q-7.51,0-14.23,6.52c-3.29,3.29-5.27,6.69-5.93,10.17a19.55,19.55,0,0,0,.79,10.28,32.59,32.59,0,0,0,5.44,9.58A83.6,83.6,0,0,0,690.9,404.78Z"/><path class="cls-1" d="M801.72,414.76q2.88,0,3.2,3.05a14.34,14.34,0,0,0,2,6,10.08,10.08,0,0,0,4.4,4.08,46.81,46.81,0,0,0,8.18,3.77,25.31,25.31,0,0,0,8.49,1.52,26.08,26.08,0,0,0,9.14-1.6,22.15,22.15,0,0,0,7.45-4.49,21.33,21.33,0,0,0,5-7,21.74,21.74,0,0,0,1.84-9.06,22.58,22.58,0,0,0-1.44-8.41,23.76,23.76,0,0,0-3.85-6.49,28.48,28.48,0,0,0-5.77-5.21,77.17,77.17,0,0,0-7.21-4.41l-7.69-4.49q-4-2.4-8.18-5.12a46.56,46.56,0,0,1-7.53-6.1,29.86,29.86,0,0,1-5.53-7.61,21.07,21.07,0,0,1-2.16-9.69,25.25,25.25,0,0,1,2.32-11,24.72,24.72,0,0,1,6.25-8.26,28.54,28.54,0,0,1,9.14-5.21,32.87,32.87,0,0,1,11-1.84,99.51,99.51,0,0,1,13.22.88,79.15,79.15,0,0,1,12.74,2.81v14.9h-.8q-2.73,0-3-3a11,11,0,0,0-2.49-6.25,16,16,0,0,0-5.29-4.09,25,25,0,0,0-6.65-2.16,37.5,37.5,0,0,0-6.73-.65,17.61,17.61,0,0,0-7.69,1.69,18,18,0,0,0-6,4.56,22.6,22.6,0,0,0-3.93,6.58,21,21,0,0,0-1.44,7.69q0,12.66,15.86,21.64l7.54,4.32q4.8,2.73,9.45,5.53a48.13,48.13,0,0,1,8.34,6.33,28.83,28.83,0,0,1,5.93,8.1A24,24,0,0,1,862,406.75,26.81,26.81,0,0,1,859.26,419a27.35,27.35,0,0,1-7.3,9.05,33.52,33.52,0,0,1-10.49,5.69,38.24,38.24,0,0,1-12.35,2,105.64,105.64,0,0,1-14.26-1,69,69,0,0,1-13.78-3.37V414.76Z"/><path class="cls-1" d="M871,394.73a52.29,52.29,0,0,1,2.25-15.79,34.47,34.47,0,0,1,6.73-12.34,29.86,29.86,0,0,1,11.06-8,43.31,43.31,0,0,1,30.85.08,30.61,30.61,0,0,1,11.14,8.1,33.58,33.58,0,0,1,6.65,12.34,53.68,53.68,0,0,1,2.17,15.63,51.45,51.45,0,0,1-2.33,15.86,34.52,34.52,0,0,1-6.81,12.34,30.77,30.77,0,0,1-11.14,8,38.22,38.22,0,0,1-15.31,2.88A37.64,37.64,0,0,1,891,431a30.51,30.51,0,0,1-11.06-8.1,34.33,34.33,0,0,1-6.73-12.42A52.49,52.49,0,0,1,871,394.73Zm14.75,13.62a52,52,0,0,0,5.53,7.13,50.79,50.79,0,0,0,7.13,6.49,39.17,39.17,0,0,0,8.17,4.73,22.32,22.32,0,0,0,8.82,1.84,21.26,21.26,0,0,0,5.45-.72,18.85,18.85,0,0,0,5.45-2.48A18.26,18.26,0,0,0,934,416a27.52,27.52,0,0,0,1.45-11.86,44.62,44.62,0,0,0-3-12.34,59.17,59.17,0,0,0-5.45-10.74,57.54,57.54,0,0,0-5.69-7.29,51.41,51.41,0,0,0-7.13-6.49,36.4,36.4,0,0,0-8.26-4.65,23.86,23.86,0,0,0-8.89-1.76,21.26,21.26,0,0,0-5.45.72,19.12,19.12,0,0,0-5.45,2.48,18.61,18.61,0,0,0-7.69,9.46,28.19,28.19,0,0,0-1.37,11.78,42.64,42.64,0,0,0,3,12.26A63.33,63.33,0,0,0,885.7,408.35Z"/><path class="cls-1" d="M951.73,394.73A52.29,52.29,0,0,1,954,378.94a34.32,34.32,0,0,1,6.73-12.34,29.78,29.78,0,0,1,11.06-8,38.66,38.66,0,0,1,15.22-2.8,39.11,39.11,0,0,1,15.63,2.88,30.61,30.61,0,0,1,11.14,8.1,33.58,33.58,0,0,1,6.65,12.34,53.69,53.69,0,0,1,2.16,15.63,51.46,51.46,0,0,1-2.32,15.86,34.52,34.52,0,0,1-6.81,12.34,30.77,30.77,0,0,1-11.14,8A38.25,38.25,0,0,1,987,433.83,37.6,37.6,0,0,1,971.77,431a30.42,30.42,0,0,1-11.06-8.1A34.18,34.18,0,0,1,954,410.43,52.49,52.49,0,0,1,951.73,394.73Zm14.75,13.62a52,52,0,0,0,5.53,7.13,50.24,50.24,0,0,0,7.13,6.49,38.92,38.92,0,0,0,8.17,4.73,22.32,22.32,0,0,0,8.82,1.84,21.31,21.31,0,0,0,5.45-.72,19,19,0,0,0,5.45-2.48,18.36,18.36,0,0,0,7.77-9.3,27.37,27.37,0,0,0,1.44-11.86,44.24,44.24,0,0,0-3-12.34,59.82,59.82,0,0,0-5.45-10.74,57.54,57.54,0,0,0-5.69-7.29,51.41,51.41,0,0,0-7.13-6.49,36.4,36.4,0,0,0-8.26-4.65,23.86,23.86,0,0,0-8.89-1.76,21.2,21.2,0,0,0-5.45.72,19,19,0,0,0-5.45,2.48,18.61,18.61,0,0,0-7.69,9.46,28,28,0,0,0-1.37,11.78A42.64,42.64,0,0,0,961,397.61,62.61,62.61,0,0,0,966.48,408.35Z"/><path class="cls-1" d="M1026.9,357.54h13.46a6.64,6.64,0,0,1,7.06,7v57.7a6.62,6.62,0,0,0,7,7.06h3.69v2.56H1026.9v-2.56h3.69a6.62,6.62,0,0,0,7.05-7.06V367.16a6.61,6.61,0,0,0-7.05-7.05h-3.69Zm22.28,14.11a38.56,38.56,0,0,1,11.22-11.54,27.58,27.58,0,0,1,15.55-4.33,20.36,20.36,0,0,1,8.81,1.76,16,16,0,0,1,6,4.89,21.52,21.52,0,0,1,3.45,7.21,33.89,33.89,0,0,1,1.12,8.9v43.75a6.62,6.62,0,0,0,7.05,7.06h3.69v2.56h-31.26v-2.56h3.69a6.62,6.62,0,0,0,7-7.06V380.78a48.43,48.43,0,0,0-.56-7.53,16.24,16.24,0,0,0-2.16-6.09,10.94,10.94,0,0,0-4.49-4,16.92,16.92,0,0,0-7.53-1.44,24.65,24.65,0,0,0-11.7,2.88A46.53,46.53,0,0,0,1049.18,371.65Z"/><path class="cls-1" d="M403.1,297q-.14-.3-.27-.57a5.15,5.15,0,0,0-.27-.48c-.22-.43-.4-.82-.57-1.16a9.35,9.35,0,0,1-.45-1.19c0-.3.14-.81.28-1.53s.29-1.5.47-2.35.37-1.72.58-2.6.42-1.63.63-2.26.42-1.15.66-1.78a13.16,13.16,0,0,1,.81-1.73,7.24,7.24,0,0,1,.95-1.36,1.94,1.94,0,0,1,1.11-.67,1.21,1.21,0,0,0,.35.33,1.67,1.67,0,0,0,.35.18,9.87,9.87,0,0,0,.88,1.09,7.71,7.71,0,0,0,1,.87c-.11.54-.27,1.14-.47,1.79s-.43,1.32-.65,2-.44,1.3-.66,1.92-.39,1.16-.51,1.6-.22.78-.32,1.24-.19.87-.29,1.43-.19,1.16-.28,1.83a3.23,3.23,0,0,0,.85-.43,10.07,10.07,0,0,0,.87-.68,9.48,9.48,0,0,0,.94-.86,14.38,14.38,0,0,0,1.05-1.13,10.15,10.15,0,0,0,.8-1.06c.24-.37.49-.77.75-1.21l.93-1.57c.32-.52.66-1.08,1-1.67s.7-1.16,1.06-1.7.71-1,1-1.49a7,7,0,0,1,.94-1.06c.2.19.43.4.69.61a2.28,2.28,0,0,0,.85.46,6.08,6.08,0,0,0,.36.53l.34.44.39.54a3.47,3.47,0,0,1,.31.54c0,.14,0,.33-.1.56s-.09.49-.15.77-.11.56-.17.85l-.18.83c-.18.81-.31,1.42-.4,1.83s-.15.74-.19,1-.06.43-.07.59,0,.39,0,.67a3.57,3.57,0,0,0,.06.65c0,.2.07.4.12.61a1.6,1.6,0,0,0,.25.57l1.29-1a4.55,4.55,0,0,0,1-1.15,15.17,15.17,0,0,0,1-1.69q.47-1,.93-2.07c.3-.75.61-1.51.91-2.3q.33-.87.66-1.71t.69-1.62c.23-.51.46-1,.68-1.4a10,10,0,0,1,.66-1.06,9.66,9.66,0,0,1,1.25.92,5.49,5.49,0,0,1,.92,1,4.63,4.63,0,0,1,.62,1.26,8.92,8.92,0,0,1,.33,1.68c-.39.76-.76,1.53-1.1,2.32s-.68,1.58-1,2.39c-.43,1-.88,2.08-1.33,3.11a30.3,30.3,0,0,1-1.52,2.95,18,18,0,0,1-1.87,2.57,10.29,10.29,0,0,1-2.39,2,3.37,3.37,0,0,0-.64-.08,1.41,1.41,0,0,0-.5.08,1.45,1.45,0,0,0-.36.22,4.24,4.24,0,0,1-1.78-1.52,23.08,23.08,0,0,1-1.32-2.25,4,4,0,0,0-.17-.36l-.2-.37-.46-.83-.27-.51-.38.35-.56.51-.33.32c-.55.52-1.12,1-1.69,1.52a16.24,16.24,0,0,1-1.8,1.35,9.84,9.84,0,0,1-2,1,7.07,7.07,0,0,1-2.27.4l-.39-.18-.34-.17a7.66,7.66,0,0,1-1-.56A6.26,6.26,0,0,1,403.1,297Z"/><path class="cls-1" d="M445.88,296.32l.35-.27,0-.56c.45-1.1.91-2.15,1.39-3.15s1-2,1.49-3.1c.16-.34.33-.68.5-1s.33-.69.5-1.05a.85.85,0,0,1,0-.23,1.11,1.11,0,0,1,.05-.28,9.19,9.19,0,0,0,.61-1c.15-.29.3-.58.44-.89s.34-.71.53-1.07a5.71,5.71,0,0,1,.71-1.05l.19-.27.29,0,.23-.09a.93.93,0,0,1,.31,0l.49.08a4.78,4.78,0,0,0,1.57-1.17,15.72,15.72,0,0,0,1.39-1.84l.32-.46.43.27a1.78,1.78,0,0,0,.43.16c.2.05.4.12.62.19.38.09.74.19,1.1.31a2,2,0,0,1,.84.47l.13.24c0,.2.07.38.1.54a4,4,0,0,0,.09.48c.07.38.14.75.19,1.12s.09.78.11,1.22.17.73.25,1.09.16.74.23,1.09q.14.78.3,1.5a7.69,7.69,0,0,0,.43,1.36,1.64,1.64,0,0,1,.32,0,2.43,2.43,0,0,1,.75-.16l.35,0,.11.32a1,1,0,0,0,.14.16,1.45,1.45,0,0,0,.18.16,1.25,1.25,0,0,1,.64.18,2.41,2.41,0,0,1,.33.28l.14.12a.61.61,0,0,0,.13.09l.49.19-.27.51a4.07,4.07,0,0,1-.9,1.11,5.56,5.56,0,0,1-1.36.88,2.86,2.86,0,0,1,.06.35,2.06,2.06,0,0,0,.07.38c.07.36.13.73.18,1.12a4.85,4.85,0,0,1,0,1.2,7,7,0,0,1-.63,1.25,5.06,5.06,0,0,1-.86,1,4.41,4.41,0,0,1-1.12.73,3.39,3.39,0,0,1-1.29.31,2.13,2.13,0,0,1-.55-.19,1.89,1.89,0,0,1-.31-.22,2.12,2.12,0,0,0-.35-.21l-.35-.16.11-.41a.4.4,0,0,0,0-.37,1.92,1.92,0,0,0-.39-.43,1,1,0,0,1-.18-.18l-.19-.2-.54-.62.89-.24a2.07,2.07,0,0,0,1.07-.55,1.78,1.78,0,0,0,.22-1.2,2.8,2.8,0,0,0-1.1,0l-.87.2c-.41.11-.81.2-1.21.28a6.4,6.4,0,0,1-1.29.13,5.65,5.65,0,0,1-1-.09l-.29,0-.08-.3a.26.26,0,0,0-.07-.12l-.12-.12a5.35,5.35,0,0,1-.32-.43.76.76,0,0,1-.09-.67,1.48,1.48,0,0,1-.21-.62c-.07.14-.13.28-.18.41l-.12.39-.1.35-.35.06a.4.4,0,0,0-.1.16.18.18,0,0,0,0,.16l.11.3-.27.24a.44.44,0,0,1-.14.13l-.13.11a4.74,4.74,0,0,1-.15.57c-.06.18-.13.36-.2.53s-.18.57-.26.84a2.84,2.84,0,0,0-.12.81l-.11.35a.92.92,0,0,1-.33.32l-.39.19a1.16,1.16,0,0,0-.38.21l-.08.35-.4.06-.5.1a1.72,1.72,0,0,1-.34,0l-.35,0c-.21-.21-.39-.38-.52-.49a2.55,2.55,0,0,0-.47-.31l-.16-.22a1.15,1.15,0,0,1-.14-.39,2.33,2.33,0,0,0-.08-.36,1.15,1.15,0,0,0-.16-.49Zm8.59-7c-.25.36-.5.74-.73,1.13l.37,0,.36,0,1.75-.13c.54-.06,1.12-.15,1.75-.27-.15-.67-.3-1.34-.47-2s-.36-1.38-.56-2.08l-.13.27a16.71,16.71,0,0,0-1.29,1.56,11,11,0,0,0-1,1.59Z"/><path class="cls-1" d="M485.93,297.88a1,1,0,0,1-.19-.26,1.55,1.55,0,0,1-.14-.39,3.65,3.65,0,0,1-.59-1,5.79,5.79,0,0,1-.29-1.23,5.47,5.47,0,0,1,0-1.28,8.75,8.75,0,0,1,.19-1.21,5.07,5.07,0,0,0,.13-.56l.27-1a2.11,2.11,0,0,1,.41-.82.86.86,0,0,1,0-.65c.09-.23.18-.45.27-.64a1.15,1.15,0,0,0,.08-.15.67.67,0,0,1,.06-.12c.21-.63.42-1.24.63-1.82s.41-1.14.6-1.68c.36-1,.71-2,1-2.91s.63-2,.9-3a1.13,1.13,0,0,1,.38-.21l.13-.06a.58.58,0,0,1,.19,0,8.88,8.88,0,0,0,1.33.56,4.25,4.25,0,0,0,1.31.25l.45.41a4.85,4.85,0,0,1,.61.84,1.76,1.76,0,0,1,.15,1.15.85.85,0,0,1-.27.29,10.09,10.09,0,0,1-.35,1.09c-.13.32-.25.62-.38.9s-.28.65-.4,1a6.73,6.73,0,0,0-.32,1.19.78.78,0,0,0-.2.32c0,.09-.06.18-.1.27s-.08.22-.13.34a.89.89,0,0,1-.25.3,5.56,5.56,0,0,1-.32,1.36c-.14.35-.29.7-.43,1-.25.63-.48,1.25-.7,1.87a7.78,7.78,0,0,0-.38,2.11,2.76,2.76,0,0,1,.6-.08,2.19,2.19,0,0,1,.67.11,5.91,5.91,0,0,1,2.11-.59c.76-.07,1.52-.12,2.27-.14a15.84,15.84,0,0,0,1.75-.08,1.23,1.23,0,0,0,.35.2l.27,0h.16l.22,0a2.2,2.2,0,0,0,.73.53c.23.1.48.19.75.28l.69.28a3.39,3.39,0,0,1,.65.39l.25,1.38a.73.73,0,0,1,.19.4.7.7,0,0,1-.11.38l0,.35a1.72,1.72,0,0,0-.67.23,3,3,0,0,0-.35.3l-.57,0a4.3,4.3,0,0,0-1.1.16,5.3,5.3,0,0,0-1.77-.29l-.77,0-.77.08-.81.1a7.14,7.14,0,0,1-.8,0l-.46.08-.27.08c-.61.2-1.27.4-2,.59a7.84,7.84,0,0,1-2.14.3,3.82,3.82,0,0,1-2.55-.81l-.16-.32A1.18,1.18,0,0,1,485.93,297.88Z"/><path class="cls-1" d="M520.83,294l0-.16s0-.08-.09-.13,0-.21.08-.25l.27-.1a13.57,13.57,0,0,1,.55-2.95c.28-.89.58-1.75.91-2.6s.67-1.69,1-2.54a18.72,18.72,0,0,0,.82-2.79,3.16,3.16,0,0,0,.58-.83c.15-.32.3-.65.46-1a7.51,7.51,0,0,1,.53-1,2.49,2.49,0,0,1,.85-.75,2.63,2.63,0,0,1,.44.09l.4.15a2.08,2.08,0,0,0,.4.14,2.16,2.16,0,0,0,.46,0,1.33,1.33,0,0,1,.18.31,1.16,1.16,0,0,0,.22.31l.48-.08a2.84,2.84,0,0,1,.62.74,3,3,0,0,1,.38.91,1.79,1.79,0,0,1,0,.92,1.11,1.11,0,0,1-.62.68.52.52,0,0,1,0,.25.59.59,0,0,1-.06.14.25.25,0,0,0,0,.14.28.28,0,0,0,.1.17,3.18,3.18,0,0,0-.53.61,3.8,3.8,0,0,0-.41.77,4.91,4.91,0,0,0-.25.8,3.62,3.62,0,0,0-.12.76,11.15,11.15,0,0,1,1.83-1.51q1-.7,1.83-1.32c.41-.29.77-.56,1.09-.82s.63-.5.95-.73.66-.43,1-.64.7-.44,1.06-.69a.6.6,0,0,1,.42-.05,1.43,1.43,0,0,1,.28.13c0-.12,0-.2-.08-.23s-.1-.11-.08-.25a4.84,4.84,0,0,0,.82-.32,6,6,0,0,1,.77-.35q.27.28.54.63a1,1,0,0,0,.72.36,1.49,1.49,0,0,0,.39.53l.46.33a1.8,1.8,0,0,1,.39.39,1.41,1.41,0,0,1,.19.72c-.07.14-.16.3-.26.47a2.67,2.67,0,0,0-.25.63,10.93,10.93,0,0,1-1.31,1c-.44.3-.89.58-1.34.85l-1.4.84a13.73,13.73,0,0,0-1.44,1,1.67,1.67,0,0,1-.41.43l-.49.37a4.41,4.41,0,0,0-.49.36,1.47,1.47,0,0,0-.36.46h-.19l-.19,0a.87.87,0,0,1-.31.35.73.73,0,0,0-.28.35,3.79,3.79,0,0,0,1.26,1.59,5.42,5.42,0,0,0,1.75.78,9.88,9.88,0,0,0,2.1.27c.76,0,1.54,0,2.34,0a.13.13,0,0,0,.13-.14c0-.08,0-.12.14-.1a2.53,2.53,0,0,1,.68.33,5,5,0,0,1,.51.4l.47.44a6.1,6.1,0,0,0,.52.47,3.2,3.2,0,0,1-.74,2.06,4.81,4.81,0,0,1-1.81,1.28,17.83,17.83,0,0,1-2.72-.08,9.09,9.09,0,0,1-2.29-.59.33.33,0,0,1-.15-.16.52.52,0,0,0-.12-.19.72.72,0,0,0-.48-.11,1,1,0,0,1-.46,0,7.06,7.06,0,0,1-.79-.49c-.37-.25-.71-.48-1-.7s-.74-.6-1.09-.9a6.14,6.14,0,0,1-.93-1,.25.25,0,0,0-.23-.14.48.48,0,0,1-.28-.08,5.7,5.7,0,0,0-1.58,1.47c-.42.58-.83,1.18-1.22,1.78a20,20,0,0,1-1.25,1.69,4.38,4.38,0,0,1-1.66,1.23,1.36,1.36,0,0,1-.51-.1,1.63,1.63,0,0,1-.4-.24l-.38-.28a1,1,0,0,0-.43-.19,1.71,1.71,0,0,0-.15-.71c-.1-.23-.19-.44-.29-.62a2.82,2.82,0,0,1-.22-.56.62.62,0,0,1,.15-.53c-.2-.16-.39-.3-.56-.41a.46.46,0,0,0,.17-.35,1,1,0,0,0-.09-.32,1.4,1.4,0,0,1-.13-.34.57.57,0,0,1,.1-.39c.07,0,.1-.05.09-.1A.14.14,0,0,1,520.83,294Z"/><path class="cls-1" d="M589.4,283.7a1.59,1.59,0,0,0-.1-.39l-.14-.39c-.09-.22-.17-.45-.25-.7a3.36,3.36,0,0,1-.1-.89,1.09,1.09,0,0,1,.13-.39,2,2,0,0,1,.16-.2l.11-.49h.4l.45,0h.44c.68,0,1.38,0,2.1-.08s1.45-.12,2.21-.19,1.71-.19,2.66-.24c.09-.2.15-.32.18-.38a1.5,1.5,0,0,1,.09-.18l.3-.17a1.55,1.55,0,0,1,.86.15,2.1,2.1,0,0,1,.37.34l1.43-.15,1.51-.2,2.18-.27a17.63,17.63,0,0,1,2.15-.14c.3,0,.59,0,.86,0l.78.08.32.24a1.91,1.91,0,0,0,.27.35,4.29,4.29,0,0,0,.38.33,5,5,0,0,1,.79.8,1.9,1.9,0,0,1,.29,1.43l-.14.27a2.3,2.3,0,0,1-.27.22l-.27.35h-.29a1.44,1.44,0,0,0-.41,0,1.65,1.65,0,0,0-.32.12l-.24.09-.3.09-.45,0h-.38a13.8,13.8,0,0,0-1.75.11q-.95.1-1.83.24l-1.24.15-1.07.12-.49,1.23c-.14.36-.29.72-.46,1.08s-.31.72-.45,1.09a12.64,12.64,0,0,0-.41,1.23,10.37,10.37,0,0,0-.54.92,5.43,5.43,0,0,0-.35,1,2.88,2.88,0,0,0-.57,1c-.12.36-.22.66-.31.91l-.11.41a.93.93,0,0,0-.23.29,1.17,1.17,0,0,1-.15.25,4,4,0,0,1-.21.67c0,.09-.07.18-.11.28a.34.34,0,0,0,0,.23,1.17,1.17,0,0,1-.16.46,1.82,1.82,0,0,1,0,.32c0,.11,0,.21,0,.32a3.21,3.21,0,0,0-.08.34.45.45,0,0,0,0,.28l.16.22a.85.85,0,0,1,.13.27.47.47,0,0,0,.14.08.26.26,0,0,1,.13.08.85.85,0,0,0,.41.21l.26.33a1.78,1.78,0,0,1-.29,1.5,1.94,1.94,0,0,1-1.62.62l-.37,0a1.19,1.19,0,0,1-.22-.24l-.4-.17a.72.72,0,0,1-.3-.26.27.27,0,0,0-.13-.07.22.22,0,0,1-.14-.06,2,2,0,0,1-.43-.19l-.29-.16c0-.18,0-.31,0-.38a2.49,2.49,0,0,1-.33-.65q-.12-.35-.21-.72l-.14-.54a1.54,1.54,0,0,0-.2-.43,9.83,9.83,0,0,1,.34-3.16c.27-.85.57-1.68.89-2.49q.27-.64.51-1.32c.17-.45.31-.91.44-1.37l.29-.3.24-.19a1.8,1.8,0,0,1,.14-.68c.09-.23.19-.46.29-.69s.14-.29.21-.43a1.81,1.81,0,0,0,.12-.38l-.34,0-.31,0a3.22,3.22,0,0,1-.67.08,1.44,1.44,0,0,1-.35,0,1.18,1.18,0,0,1-.41.12l-.37,0h-.65a1.24,1.24,0,0,0-.51.08h-1.37a4.6,4.6,0,0,1-.49,0,1.76,1.76,0,0,1-.56-.21l-.19-.21c-.11-.2-.21-.31-.3-.32l-.29-.08Z"/><path class="cls-1" d="M624.41,298a.08.08,0,0,1-.11,0,.3.3,0,0,1,0-.16.2.2,0,0,1,.08-.14.17.17,0,0,1,.17,0,2.25,2.25,0,0,1-.44-.78,4.2,4.2,0,0,0-.36-.86.38.38,0,0,0,.1-.23,2.29,2.29,0,0,1,.07-.28.42.42,0,0,1,.11-.2c0-.05.1,0,.17,0a1.33,1.33,0,0,1,0-.49,3.62,3.62,0,0,1,.13-.35,1.68,1.68,0,0,0,.09-.32.64.64,0,0,0-.08-.38,3.77,3.77,0,0,0,.67-1.52,9.65,9.65,0,0,0,.19-1.49,2.15,2.15,0,0,0,.42-.65,4,4,0,0,0,.25-.83,4.14,4.14,0,0,0,.08-.85,1.7,1.7,0,0,0-.1-.66.13.13,0,0,1,.12-.12.94.94,0,0,1,.23,0,19.76,19.76,0,0,0,.25-2.39,25,25,0,0,1,.27-2.54,7.4,7.4,0,0,1,.66-2.16,2.2,2.2,0,0,1,1.45-1.19,4.71,4.71,0,0,0,.5,1.18c.21.34.43.67.67,1l.74,1a7.6,7.6,0,0,1,.7,1.07c0,.41-.06.89-.12,1.43s-.14,1.08-.24,1.64-.2,1.09-.3,1.61-.19,1-.28,1.32a.24.24,0,0,0,.19.18c.11,0,.12.13.05.31.52-.13,1.07-.25,1.63-.37l1.67-.35c.55-.11,1.08-.25,1.61-.41a9,9,0,0,0,1.5-.6c.11-.86.24-1.71.4-2.55a7.58,7.58,0,0,0,.05-2.56,1.18,1.18,0,0,0,.27-.32.48.48,0,0,1,.33-.24,4.36,4.36,0,0,1-.14-1.31,4.76,4.76,0,0,1,.23-1.28,3,3,0,0,1,.61-1,1.86,1.86,0,0,1,1-.58,6.93,6.93,0,0,1,.62,1.1l.54,1.2a12.16,12.16,0,0,0,.58,1.14,3,3,0,0,0,.79.92c.06.63.1,1.27.14,1.92s.06,1.33.08,2c-.16.81-.35,1.6-.55,2.36a15,15,0,0,0-.45,2.43,2.24,2.24,0,0,0-.35.58c-.09.23-.17.45-.25.67a4.88,4.88,0,0,1-.29.66,1.59,1.59,0,0,1-.4.54,1.61,1.61,0,0,1,0,.72,1.19,1.19,0,0,0,.17.79,2.62,2.62,0,0,1-.9,2.33,3.48,3.48,0,0,1-1,.62c-.38.15-.77.29-1.14.41a4.81,4.81,0,0,1-.5-.33,1.4,1.4,0,0,0-.55-.26l.13-.24a7,7,0,0,1-.93-1.14,2.36,2.36,0,0,1-.36-1.39s0-.14.05-.36.08-.47.13-.72.08-.49.13-.71.07-.35.07-.36a7.1,7.1,0,0,0-1.56.35c-.54.18-1.07.38-1.58.6s-1,.46-1.42.7-.8.45-1.07.61a2.08,2.08,0,0,1-.13.45c-.09.26-.2.52-.32.8a5.14,5.14,0,0,1-.42.74c-.15.21-.31.31-.47.29a.68.68,0,0,0,.11.21.34.34,0,0,1,0,.25,3.91,3.91,0,0,0-.83.35,4.49,4.49,0,0,1-.73.36,2.07,2.07,0,0,1-.83.14,2.52,2.52,0,0,1-1.06-.34.44.44,0,0,0-.16-.33,2,2,0,0,0-.34-.26l-.31-.19C624.45,298.07,624.41,298,624.41,298Z"/><path class="cls-1" d="M663.13,298a1.32,1.32,0,0,1-.31-.51.82.82,0,0,0-.44-.48q-.06-.41-.15-.93c-.06-.35-.12-.71-.19-1.08s-.1-.73-.13-1.1a4.12,4.12,0,0,1,0-1,1.81,1.81,0,0,1,.17-.46c.09-.14.17-.28.25-.42a2.17,2.17,0,0,0,.19-.41.9.9,0,0,0,0-.43.23.23,0,0,0,.2-.18c0-.1.11-.13.26-.09.12-.4.26-.77.4-1.11s.3-.67.46-1l.49-1a9,9,0,0,0,.48-1.12,2.58,2.58,0,0,1-.66-.93,5.34,5.34,0,0,1-.31-1,8.83,8.83,0,0,1-.16-1,6,6,0,0,0-.22-1.07,3.09,3.09,0,0,1,.78-.79,4.35,4.35,0,0,1,1-.51,7,7,0,0,1,1.2-.32l1.37-.29q1.29-.4,2.31-.63c.69-.15,1.35-.28,2-.38s1.32-.18,2-.27,1.51-.2,2.43-.36a.09.09,0,0,0,.09.08h.17a.3.3,0,0,0,.3.19.76.76,0,0,0,0-.15.5.5,0,0,1,0-.12l.15,0,.16,0a.1.1,0,0,0,.12,0s0-.09,0-.18a2.79,2.79,0,0,0,.84.93,6.12,6.12,0,0,0,1.13.63,2.28,2.28,0,0,1,0,.35,1.3,1.3,0,0,1,0,.21.66.66,0,0,0,0,.21,1.43,1.43,0,0,0,.06.34,3.82,3.82,0,0,1-1,1.13,4.54,4.54,0,0,1-1.17.62,7.49,7.49,0,0,1-1.3.32l-1.4.23a12.45,12.45,0,0,0-1.44.33,6.08,6.08,0,0,0-1.43.65,1,1,0,0,0-.39-.07,1.63,1.63,0,0,0-.36.07l-.42.11a1.68,1.68,0,0,1-.55,0,1.42,1.42,0,0,1-.5.27l-.58.16a1.25,1.25,0,0,1,.12.59,1.53,1.53,0,0,0,.07.51,14.06,14.06,0,0,0,2.51,0c.91-.08,1.81-.14,2.69-.18a.25.25,0,0,1,0,.19.25.25,0,0,0-.06.19,2.17,2.17,0,0,1,.46.4c.15.17.29.32.45.47a2.31,2.31,0,0,0,.47.38.88.88,0,0,0,.56.12,2.25,2.25,0,0,1,.19.57,1.05,1.05,0,0,1-.08.62c-.36.23-.71.47-1,.71a10.44,10.44,0,0,1-1.06.66,5.78,5.78,0,0,1-1.2.48,4.24,4.24,0,0,1-1.4.16h-.23a.4.4,0,0,1-.23-.1,1.28,1.28,0,0,1-.71.09,1.42,1.42,0,0,0-.74.1,2.56,2.56,0,0,0-.87-.14,2.59,2.59,0,0,1-.88-.13,16.35,16.35,0,0,0-.91,1.46,12.16,12.16,0,0,0-.76,1.63,11.13,11.13,0,0,0,1.83.14c.49,0,.94-.06,1.38-.11l1.33-.16a10.7,10.7,0,0,1,1.68-.06,5.32,5.32,0,0,1,1.55-.44,9.63,9.63,0,0,0,1.62-.36.88.88,0,0,1,.46.3l.37.46a2.25,2.25,0,0,0,.36.39.52.52,0,0,0,.48.11.68.68,0,0,1,.18.32,3,3,0,0,0,.08.35.7.7,0,0,0,.12.26c.05.06.15.08.3.07A5.38,5.38,0,0,1,677,297.1a4.53,4.53,0,0,1-1.42.87,8.27,8.27,0,0,1-1.78.46c-.66.1-1.39.22-2.19.37a1,1,0,0,1-.5,0,1.48,1.48,0,0,0-.42-.07c-.5.09-1.1.18-1.79.27a13.12,13.12,0,0,1-2.08.11,9.46,9.46,0,0,1-2-.27A3.52,3.52,0,0,1,663.13,298Z"/><path class="cls-1" d="M727.23,291.29c0-.07.06-.11.13-.1a.32.32,0,0,0,.17,0,1,1,0,0,1-.27-.58,1.11,1.11,0,0,0-.27-.6c0-.09.07-.18.1-.27s.1-.13.23-.11a3.1,3.1,0,0,1,0-1.1,4,4,0,0,1,.34-1,6,6,0,0,1,.54-.9l.6-.91c.16,0,.26,0,.3,0s.1.05.19,0a1.59,1.59,0,0,0,.59-.66,1.86,1.86,0,0,0,.16-.79c.16-.46.35-.93.55-1.38a9.21,9.21,0,0,1,.71-1.28,6.47,6.47,0,0,1,.87-1,3.43,3.43,0,0,1,1-.68,4,4,0,0,1,1-.6,5.39,5.39,0,0,1,1.23-.41,6.84,6.84,0,0,1,1.36-.17,4.76,4.76,0,0,1,1.29.15c.09,0,.15,0,.17-.06s.06-.13.13-.13a11.42,11.42,0,0,1,2.41.54,5.43,5.43,0,0,1,1.82,1,17.88,17.88,0,0,1,1,1.74,9.41,9.41,0,0,1,.72,1.94,8,8,0,0,1,.23,2.08,6.1,6.1,0,0,1-.46,2.15,7.13,7.13,0,0,1-2.29,1.9,15.76,15.76,0,0,1-2.89,1.18,27.16,27.16,0,0,1-3.2.77c-1.11.2-2.18.41-3.22.65,0,.48,0,1,0,1.54a13.18,13.18,0,0,1-.17,1.65,11.11,11.11,0,0,1-.43,1.6,6.11,6.11,0,0,1-.77,1.45,4,4,0,0,0-1.12.11c-.38.09-.73.18-1,.27l-.42-.26a1.23,1.23,0,0,0-.5-.15.86.86,0,0,0-.15-.67l-.45-.69a1.6,1.6,0,0,1-.3-.67.58.58,0,0,1,.31-.6.75.75,0,0,1-.22-.6.35.35,0,0,0,.27.11,3.59,3.59,0,0,1,.12-1.16c.12-.44.22-.89.3-1.33a3.84,3.84,0,0,0,0-1.21A1,1,0,0,0,727.23,291.29Zm7-6.3c-.07.2-.13.37-.17.53s-.1.29-.15.41-.11.25-.18.38l-.2.43a.4.4,0,0,0,.22.24.44.44,0,0,1,.21.24,3.81,3.81,0,0,1,.75-.28l.76-.15c.25,0,.5-.08.75-.13a3.3,3.3,0,0,0,.78-.27,5.71,5.71,0,0,1,.85-.31l.87-.25c.29-.09.57-.2.84-.31a2.29,2.29,0,0,0,.7-.48,3.36,3.36,0,0,0-1.13-.61,6.26,6.26,0,0,0-3.38-.22A3.3,3.3,0,0,0,734.23,285Z"/><path class="cls-1" d="M763.64,297.88a1,1,0,0,1-.18-.26,1.24,1.24,0,0,1-.14-.39,3.43,3.43,0,0,1-.59-1,6.49,6.49,0,0,1-.3-1.23,6.08,6.08,0,0,1,0-1.28,7.49,7.49,0,0,1,.18-1.21,5.09,5.09,0,0,0,.14-.56l.27-1a2.1,2.1,0,0,1,.4-.82.92.92,0,0,1,0-.65c.09-.23.18-.45.27-.64l.08-.15a.73.73,0,0,1,.05-.12l.63-1.82c.21-.58.41-1.14.61-1.68.36-1,.7-2,1-2.91s.63-2,.9-3a1.2,1.2,0,0,1,.37-.21l.14-.06a.54.54,0,0,1,.19,0,8.45,8.45,0,0,0,1.33.56,4.25,4.25,0,0,0,1.3.25l.46.41a4.85,4.85,0,0,1,.61.84,1.76,1.76,0,0,1,.15,1.15.85.85,0,0,1-.27.29,10.09,10.09,0,0,1-.35,1.09c-.13.32-.25.62-.38.9s-.28.65-.4,1a6.67,6.67,0,0,0-.33,1.19,1.08,1.08,0,0,0-.2.32l-.09.27a3.07,3.07,0,0,1-.14.34.76.76,0,0,1-.24.3,5.56,5.56,0,0,1-.32,1.36c-.15.35-.29.7-.43,1-.25.63-.49,1.25-.7,1.87a7.41,7.41,0,0,0-.38,2.11,2.67,2.67,0,0,1,.59-.08,2.2,2.2,0,0,1,.68.11,5.91,5.91,0,0,1,2.11-.59c.76-.07,1.52-.12,2.27-.14a16,16,0,0,0,1.75-.08,1.23,1.23,0,0,0,.35.2l.27,0h.16l.22,0a2.28,2.28,0,0,0,.72.53c.24.1.49.19.76.28l.68.28a3.18,3.18,0,0,1,.66.39l.24,1.38c.15.19.21.33.19.4a.7.7,0,0,1-.1.38l0,.35a1.65,1.65,0,0,0-.67.23,3,3,0,0,0-.35.3l-.57,0a4.24,4.24,0,0,0-1.1.16,5.32,5.32,0,0,0-1.78-.29l-.77,0-.76.08-.81.1a7.32,7.32,0,0,1-.81,0l-.45.08-.27.08c-.61.2-1.27.4-2,.59a7.84,7.84,0,0,1-2.14.3,3.87,3.87,0,0,1-2.56-.81,1.81,1.81,0,0,0-.16-.32Z"/><path class="cls-1" d="M797.31,296.32l.35-.27,0-.56c.44-1.1.91-2.15,1.38-3.15s1-2,1.5-3.1c.16-.34.32-.68.49-1s.34-.69.5-1.05a.86.86,0,0,1,0-.23.79.79,0,0,1,.05-.28,9,9,0,0,0,.6-1c.16-.29.3-.58.45-.89s.33-.71.52-1.07a5.78,5.78,0,0,1,.72-1.05l.18-.27.3,0,.23-.09a.9.9,0,0,1,.31,0l.48.08a4.82,4.82,0,0,0,1.58-1.17,15.72,15.72,0,0,0,1.38-1.84l.33-.46.43.27a1.78,1.78,0,0,0,.43.16l.62.19c.37.09.74.19,1.1.31a1.89,1.89,0,0,1,.83.47l.14.24c0,.2.07.38.09.54s.06.32.1.48c.07.38.13.75.18,1.12a10.83,10.83,0,0,1,.11,1.22c.09.36.18.73.26,1.09s.15.74.23,1.09c.09.52.19,1,.29,1.5a8.62,8.62,0,0,0,.43,1.36,1.78,1.78,0,0,1,.33,0,2.31,2.31,0,0,1,.75-.16l.35,0,.11.32a.91.91,0,0,0,.13.16l.19.16a1.18,1.18,0,0,1,.63.18,2,2,0,0,1,.34.28l.13.12a.63.63,0,0,0,.14.09l.48.19-.27.51a3.89,3.89,0,0,1-.9,1.11,5.38,5.38,0,0,1-1.36.88,1.8,1.8,0,0,1,.07.35,2.06,2.06,0,0,0,.07.38c.07.36.13.73.17,1.12a4.83,4.83,0,0,1,0,1.2,7,7,0,0,1-.63,1.25,5.11,5.11,0,0,1-.87,1,4.36,4.36,0,0,1-1.11.73,3.44,3.44,0,0,1-1.29.31,2.23,2.23,0,0,1-.56-.19,1.79,1.79,0,0,1-.3-.22,2.64,2.64,0,0,0-.35-.21l-.35-.16.1-.41a.4.4,0,0,0,0-.37,1.92,1.92,0,0,0-.39-.43,1.62,1.62,0,0,1-.19-.18l-.19-.2-.54-.62.89-.24a2.07,2.07,0,0,0,1.08-.55,1.79,1.79,0,0,0,.21-1.2,2.79,2.79,0,0,0-1.1,0l-.86.2c-.41.11-.82.2-1.21.28a6.56,6.56,0,0,1-1.29.13,5.56,5.56,0,0,1-1-.09l-.3,0-.08-.3a.19.19,0,0,0-.07-.12l-.12-.12c-.09-.11-.19-.25-.32-.43a.79.79,0,0,1-.08-.67,1.37,1.37,0,0,1-.22-.62,2.75,2.75,0,0,0-.17.41q-.08.21-.12.39l-.11.35-.35.06a.4.4,0,0,0-.09.16.24.24,0,0,0,0,.16l.11.3-.27.24a.4.4,0,0,1-.13.13l-.14.11a3.39,3.39,0,0,1-.14.57c-.07.18-.13.36-.21.53s-.17.57-.25.84a2.84,2.84,0,0,0-.12.81l-.11.35a.87.87,0,0,1-.34.32l-.39.19a1.09,1.09,0,0,0-.37.21l-.09.35-.4.06-.5.1a1.69,1.69,0,0,1-.33,0l-.35,0c-.22-.21-.39-.38-.53-.49a2,2,0,0,0-.47-.31l-.16-.22a1.12,1.12,0,0,1-.13-.39c0-.12-.05-.24-.08-.36a1,1,0,0,0-.17-.49Zm8.58-7c-.25.36-.49.74-.72,1.13l.36,0a2.19,2.19,0,0,0,.36,0c.63,0,1.22-.08,1.75-.13s1.12-.15,1.75-.27c-.14-.67-.3-1.34-.47-2s-.35-1.38-.55-2.08l-.13.27a18.52,18.52,0,0,0-1.3,1.56,13.08,13.08,0,0,0-1,1.59Z"/><path class="cls-1" d="M840.69,296.35a.8.8,0,0,0-.32.55c0,.22-.08.44-.14.66a1.31,1.31,0,0,1-.28.55.84.84,0,0,1-.71.2c-.07.09-.09.14,0,.16s.08.1.12.24a.85.85,0,0,0-.54.06,1.34,1.34,0,0,1-.4.16,2.1,2.1,0,0,1-1-.69,5.92,5.92,0,0,1-.73-1.09,10.07,10.07,0,0,1-.53-1.21,8.44,8.44,0,0,0-.48-1.07c0-.08,0-.11.1-.1l.17,0a2.73,2.73,0,0,1-.2-.61,1.17,1.17,0,0,0-.25-.55c.52-1.11,1.07-2.28,1.66-3.49s1.19-2.44,1.79-3.68,1.21-2.5,1.81-3.77,1.18-2.51,1.73-3.73a11.89,11.89,0,0,1,1.47.64,7.24,7.24,0,0,1,1.3.84,5.1,5.1,0,0,1,1,1.12,3.63,3.63,0,0,1,.55,1.44c0,.11-.08.14-.13.11s-.1,0-.13.05a1,1,0,0,1,.14.23.19.19,0,0,1,0,.13.48.48,0,0,0,0,.18.63.63,0,0,0,.14.3c-.09,0-.16,0-.19,0s-.1,0-.19,0a1,1,0,0,1,.08.59,1.14,1.14,0,0,1-.16.39,2.22,2.22,0,0,0-.18.38,1,1,0,0,0,0,.55c-.07,0-.12,0-.14,0l-.07.09a.36.36,0,0,1-.07.1s-.07,0-.14,0a9.5,9.5,0,0,1,0,1.41c0,.48,0,1,0,1.46s0,1,0,1.52a7.65,7.65,0,0,0,.21,1.61,5.61,5.61,0,0,0,1.87-1.75,9.24,9.24,0,0,0,1.13-2.39,19.26,19.26,0,0,0,.65-2.83c.15-1,.31-2,.47-3.06a2.35,2.35,0,0,0,.47-.73,8.42,8.42,0,0,0,.29-.89c.09-.3.17-.61.25-.93a3.76,3.76,0,0,1,.33-.85,1.82,1.82,0,0,1,.82.29,4.48,4.48,0,0,1,.64.51,6,6,0,0,0,.61.52,2,2,0,0,0,.81.33c.25.36.49.7.7,1a2.87,2.87,0,0,1,.43,1.12,2,2,0,0,0-.24.59c0,.22-.11.43-.18.65a2.38,2.38,0,0,1-.25.59,1.44,1.44,0,0,1-.46.46,10.94,10.94,0,0,1-.24,1.5q-.16.7-.3,1.38c-.09.44-.17.91-.24,1.39a9,9,0,0,0-.08,1.59c-.16.52-.34,1.06-.54,1.6a11.58,11.58,0,0,0-.43,1.52,2.88,2.88,0,0,0-.8,1L851,296c-.09.08-.15.09-.17,0s-.09-.07-.24-.09c0,.16,0,.26-.09.31s-.08.17,0,.39a3,3,0,0,0-.81.56,5.31,5.31,0,0,1-.76.65,2.26,2.26,0,0,1-1,.39,2.93,2.93,0,0,1-1.44-.23,13.17,13.17,0,0,1-2.37-2.23,10,10,0,0,1-1.67-3,.66.66,0,0,0-.4.35,4.87,4.87,0,0,0-.24.57c-.07.19-.15.37-.22.53a.34.34,0,0,1-.32.25,1.17,1.17,0,0,1-.2.44l-.29.4a1.82,1.82,0,0,0-.2.45A.82.82,0,0,0,840.69,296.35Z"/><path class="cls-1" d="M874.65,298a1.21,1.21,0,0,1-.31-.51.82.82,0,0,0-.44-.48q-.06-.41-.15-.93c-.06-.35-.13-.71-.19-1.08a10.3,10.3,0,0,1-.13-1.1,3.68,3.68,0,0,1,0-1,1.5,1.5,0,0,1,.17-.46l.24-.42a1.69,1.69,0,0,0,.19-.41.7.7,0,0,0,0-.43.25.25,0,0,0,.21-.18c0-.1.11-.13.25-.09a11.8,11.8,0,0,1,.41-1.11q.21-.51.45-1c.17-.32.33-.65.5-1a9,9,0,0,0,.47-1.12,2.85,2.85,0,0,1-.66-.93,7.34,7.34,0,0,1-.31-1c-.07-.34-.12-.68-.16-1a6,6,0,0,0-.21-1.07,2.8,2.8,0,0,1,.78-.79,4.16,4.16,0,0,1,1-.51A6.66,6.66,0,0,1,878,281l1.38-.29q1.29-.4,2.31-.63c.68-.15,1.35-.28,2-.38s1.32-.18,2-.27,1.51-.2,2.42-.36a.11.11,0,0,0,.1.08h.17a.3.3,0,0,0,.3.19.77.77,0,0,0,0-.15.49.49,0,0,1,0-.12l.15,0,.16,0a.11.11,0,0,0,.12,0s0-.09,0-.18a2.76,2.76,0,0,0,.83.93,6.46,6.46,0,0,0,1.13.63,2.74,2.74,0,0,1,0,.35,1.29,1.29,0,0,1-.05.21,1.25,1.25,0,0,0,0,.21,2,2,0,0,0,.05.34,3.79,3.79,0,0,1-1,1.13,4.71,4.71,0,0,1-1.17.62,7.6,7.6,0,0,1-1.31.32l-1.4.23a13.47,13.47,0,0,0-1.44.33,6,6,0,0,0-1.42.65,1,1,0,0,0-.39-.07,1.53,1.53,0,0,0-.36.07l-.42.11a1.68,1.68,0,0,1-.55,0,1.51,1.51,0,0,1-.5.27l-.58.16a1.25,1.25,0,0,1,.12.59,1.31,1.31,0,0,0,.07.51,13.94,13.94,0,0,0,2.5,0c.92-.08,1.81-.14,2.69-.18a.22.22,0,0,1,0,.19.25.25,0,0,0-.06.19,2.44,2.44,0,0,1,.46.4c.14.17.29.32.44.47a2.31,2.31,0,0,0,.47.38.91.91,0,0,0,.57.12,2.25,2.25,0,0,1,.19.57,1.14,1.14,0,0,1-.08.62c-.36.23-.71.47-1,.71a10.59,10.59,0,0,1-1.07.66,5.48,5.48,0,0,1-1.19.48,4.24,4.24,0,0,1-1.4.16H883a.4.4,0,0,1-.23-.1,1.3,1.3,0,0,1-.71.09,1.4,1.4,0,0,0-.74.1,2.62,2.62,0,0,0-.88-.14,2.57,2.57,0,0,1-.87-.13,16.42,16.42,0,0,0-.92,1.46,12.12,12.12,0,0,0-.75,1.63,11.06,11.06,0,0,0,1.83.14c.48,0,.94-.06,1.37-.11l1.33-.16a10.83,10.83,0,0,1,1.69-.06,5.25,5.25,0,0,1,1.54-.44,9.53,9.53,0,0,0,1.63-.36.93.93,0,0,1,.46.3l.36.46a2.77,2.77,0,0,0,.37.39.52.52,0,0,0,.48.11.59.59,0,0,1,.17.32c0,.13.06.24.08.35a.58.58,0,0,0,.13.26.34.34,0,0,0,.29.07,5.2,5.2,0,0,1-1.14,1.61A4.47,4.47,0,0,1,887,298a8.17,8.17,0,0,1-1.77.46c-.66.1-1.39.22-2.2.37a1,1,0,0,1-.49,0,1.54,1.54,0,0,0-.42-.07c-.5.09-1.1.18-1.79.27a13.25,13.25,0,0,1-2.09.11,9.55,9.55,0,0,1-2-.27A3.53,3.53,0,0,1,874.65,298Z"/><path class="cls-1" d="M909.47,283.7a1.59,1.59,0,0,0-.09-.39q-.07-.18-.15-.39a6.37,6.37,0,0,1-.24-.7,3.33,3.33,0,0,1-.11-.89,1.07,1.07,0,0,1,.14-.39.83.83,0,0,1,.16-.2l.1-.49h.41a3.15,3.15,0,0,0,.44,0h.45c.68,0,1.38,0,2.09-.08s1.46-.12,2.21-.19,1.71-.19,2.67-.24c.08-.2.14-.32.17-.38l.09-.18.3-.17a1.55,1.55,0,0,1,.86.15,2.2,2.2,0,0,1,.38.34l1.42-.15,1.51-.2,2.18-.27a17.75,17.75,0,0,1,2.15-.14c.31,0,.6,0,.86,0l.78.08.33.24a1.31,1.31,0,0,0,.27.35,4.1,4.1,0,0,0,.37.33,5,5,0,0,1,.8.8,1.9,1.9,0,0,1,.28,1.43l-.13.27-.27.22-.27.35h-.3a1.36,1.36,0,0,0-.4,0,1.44,1.44,0,0,0-.32.12l-.25.09-.29.09-.46,0h-.38a13.8,13.8,0,0,0-1.75.11q-.93.1-1.83.24l-1.23.15-1.08.12-.48,1.23c-.15.36-.3.72-.46,1.08s-.32.72-.46,1.09a12.73,12.73,0,0,0-.4,1.23,7,7,0,0,0-.54.92,4.79,4.79,0,0,0-.35,1,2.9,2.9,0,0,0-.58,1c-.12.36-.22.66-.31.91l-.11.41a1.12,1.12,0,0,0-.23.29.81.81,0,0,1-.14.25,5.25,5.25,0,0,1-.22.67c0,.09-.07.18-.11.28a.39.39,0,0,0,0,.23,1.36,1.36,0,0,1-.16.46,1.82,1.82,0,0,1,0,.32l-.06.32c0,.13-.06.24-.08.34a.53.53,0,0,0,0,.28l.16.22a.86.86,0,0,1,.14.27.41.41,0,0,0,.13.08.25.25,0,0,1,.14.08.82.82,0,0,0,.4.21l.27.33a1.75,1.75,0,0,1-.3,1.5,1.93,1.93,0,0,1-1.61.62l-.38,0a1,1,0,0,1-.21-.24L915,299a.7.7,0,0,1-.29-.26.31.31,0,0,0-.14-.07.2.2,0,0,1-.13-.06,1.76,1.76,0,0,1-.43-.19l-.3-.16c0-.18,0-.31,0-.38a2.24,2.24,0,0,1-.34-.65,5.44,5.44,0,0,1-.2-.72q-.07-.3-.15-.54a1.3,1.3,0,0,0-.2-.43,9.53,9.53,0,0,1,.35-3.16c.27-.85.56-1.68.89-2.49q.27-.64.51-1.32c.16-.45.3-.91.43-1.37l.3-.3a1.37,1.37,0,0,1,.24-.19,1.79,1.79,0,0,1,.13-.68q.14-.34.3-.69c.07-.14.14-.29.2-.43a1.81,1.81,0,0,0,.12-.38l-.34,0-.31,0a3.14,3.14,0,0,1-.67.08,1.44,1.44,0,0,1-.35,0,1.13,1.13,0,0,1-.4.12l-.38,0h-.64a1.26,1.26,0,0,0-.52.08H911.3a4.64,4.64,0,0,1-.48,0,1.81,1.81,0,0,1-.57-.21l-.19-.21c-.1-.2-.2-.31-.29-.32l-.3-.08Z"/></svg>